<svg width="16" height="16" viewBox="0 0 16 16" fill="none" xmlns="http://www.w3.org/2000/svg">
<path fill-rule="evenodd" clip-rule="evenodd" d="M8.48 7.6024L11.5928 10.7152L10.9144 11.3944L7.52 8V3.2H8.48V7.6024ZM8 16C3.5816 16 0 12.4184 0 8C0 3.5816 3.5816 0 8 0C12.4184 0 16 3.5816 16 8C16 12.4184 12.4184 16 8 16ZM8 15.04C9.86712 15.04 11.6578 14.2983 12.978 12.978C14.2983 11.6578 15.04 9.86712 15.04 8C15.04 6.13288 14.2983 4.34222 12.978 3.02197C11.6578 1.70171 9.86712 0.96 8 0.96C6.13288 0.96 4.34222 1.70171 3.02197 3.02197C1.70171 4.34222 0.96 6.13288 0.96 8C0.96 9.86712 1.70171 11.6578 3.02197 12.978C4.34222 14.2983 6.13288 15.04 8 15.04Z" fill="#F4EAFD"/>
</svg>
